<svg width="33" height="83" viewBox="0 0 33 83" fill="none" xmlns="http://www.w3.org/2000/svg">
<path opacity="0.26809" d="M32.24 78.4669C32.2511 79.0077 31.8438 79.5438 31.0416 80.0444C30.2393 80.5449 29.0579 81 27.5653 81.3834C26.0726 81.7669 24.2982 82.0712 22.3438 82.2788C20.3895 82.4865 18.2939 82.5934 16.1774 82.5934C14.0609 82.5934 11.9653 82.4865 10.011 82.2788C8.05669 82.0712 6.28222 81.7669 4.78957 81.3834C3.29692 81 2.11552 80.5449 1.31327 80.0444C0.511025 79.5438 0.103746 79.0077 0.114845 78.4669C0.103746 77.926 0.511025 77.3899 1.31327 76.8893C2.11552 76.3888 3.29692 75.9337 4.78957 75.5503C6.28222 75.1668 8.05669 74.8625 10.011 74.6549C11.9653 74.4472 14.0609 74.3403 16.1774 74.3403C18.2939 74.3403 20.3895 74.4472 22.3438 74.6549C24.2982 74.8625 26.0726 75.1668 27.5653 75.5503C29.0579 75.9337 30.2393 76.3888 31.0416 76.8893C31.8438 77.3899 32.2511 77.926 32.24 78.4669Z" fill="url(#paint0_radial_39_2981)"/>
<path d="M14.7076 1.26999C12.4457 1.28871 10.1843 1.61997 7.92298 2.41295C2.39815 5.72235 0.696564 9.88075 0.696564 14.4916C0.696564 23.6062 13.8788 34.9515 12.982 41.0736C11.7473 49.5037 0.807108 56.0744 0.807108 65.8176C0.807108 70.4286 2.50854 74.5867 8.03352 77.8961C13.2021 79.7087 18.3735 79.0977 23.5421 77.8961C29.065 73.8199 30.8372 69.4399 30.6511 64.8932C30.6511 59.6434 18.3495 46.5141 18.3495 39.9731C18.3495 32.7405 30.5408 23.1536 30.5408 15.4152C31.0274 10.8918 28.9545 6.48835 23.4317 2.41215C20.5243 1.73627 17.6158 1.24511 14.7076 1.26919V1.26999Z" fill="#F7FAFA"/>
<path d="M2.00195 63.336L0.945959 63.9216C0.940852 63.9568 0.936999 63.9922 0.932166 64.0274C0.915692 64.1474 0.897116 64.2663 0.88385 64.3872C0.880779 64.4152 0.87986 64.4439 0.876945 64.4719C0.861626 64.6197 0.852806 64.7672 0.842437 64.9164C0.832752 65.0562 0.820043 65.1986 0.814831 65.3397C0.814439 65.3491 0.815222 65.3586 0.814831 65.3679C0.809587 65.5184 0.807922 65.6676 0.807922 65.8195C0.807922 70.4305 2.50936 74.5887 8.03434 77.8981C13.2029 79.7106 18.3744 79.0996 23.5429 77.8981C23.7155 77.7707 23.8814 77.6451 24.0467 77.5171C26.5264 75.5976 28.1961 73.6135 29.237 71.5765C29.3064 71.4407 29.3733 71.3035 29.4372 71.1673C30.3951 69.1235 30.7391 67.0265 30.6519 64.8951C30.6519 64.7225 30.6362 64.541 30.6105 64.3518L23.4602 63.9003L2.00301 63.3359L2.00195 63.336Z" fill="#B9A06D"/>
<path d="M0.931739 64.014C0.931152 64.0186 0.932326 64.0235 0.931739 64.0281C0.915265 64.1481 0.896688 64.267 0.883423 64.3879C0.880351 64.4159 0.879433 64.4446 0.876518 64.4726C0.861198 64.6204 0.852379 64.7679 0.84201 64.9171C0.832325 65.0569 0.819616 65.1993 0.814403 65.3404C0.814012 65.3498 0.814795 65.3592 0.814403 65.3686C0.80916 65.5191 0.807495 65.6682 0.807495 65.8202C0.807495 70.4312 2.50893 74.5894 8.03391 77.8988C13.2025 79.7113 18.3739 79.1003 23.5425 77.8988C23.7151 77.7714 23.881 77.6457 24.0463 77.5178C24.8936 76.8619 25.6448 76.1986 26.3102 75.5282C16.4996 78.8176 4.91173 73.8619 0.932166 64.014L0.931739 64.014Z" fill="#B2965E"/>
<path d="M15.5626 60.578C11.6003 60.578 8.00143 60.9789 5.32021 61.6363L2.01428 61.594L1.08252 63.125C0.941941 63.8073 0.853317 64.5063 0.820251 65.2204C2.11216 67.0462 8.21903 68.4306 15.5628 68.4306C23.8464 68.4306 30.5608 66.6706 30.5608 64.5008C30.5608 64.3372 30.5175 64.1793 30.4434 64.021L30.5539 64.0069C30.5346 63.9118 30.5094 63.8162 30.4848 63.7177L29.2287 61.9397L26.8269 61.9115C24.0781 61.0931 20.0512 60.578 15.563 60.578L15.5626 60.578Z" fill="#C0AC7F"/>
<path d="M15.7152 56.098C15.3344 56.1012 14.9593 56.2383 14.6799 56.479C12.8569 58.2044 11.0756 59.3048 8.55093 59.9644C5.12349 60.8599 2.05488 60.8273 1.89053 61.8834C1.89053 62.6759 8.03558 63.3156 15.6185 63.3156C23.2014 63.3156 29.3533 62.6759 29.3533 61.8834C28.2292 60.4866 24.7032 60.6986 21.7197 59.6328C19.6657 58.8991 17.8362 57.4494 16.8262 56.5284C16.5365 56.2555 16.1275 56.0951 15.715 56.098L15.7152 56.098Z" fill="#D4C198"/>
<path d="M15.7152 56.098C15.658 56.0984 15.5994 56.1057 15.5427 56.1121C17.2198 60.2831 19.7834 62.3181 22.555 63.1181C26.6156 62.8696 29.3534 62.411 29.3534 61.8834C28.2293 60.4866 24.7033 60.6986 21.7198 59.6328C19.6658 58.8991 17.8363 57.4494 16.8263 56.5284C16.5366 56.2555 16.1277 56.095 15.7152 56.098Z" fill="#D9C5A0"/>
<path d="M6.50197 23.904L4.61084 24.9482C8.38654 31.1054 13.4684 37.0762 12.9967 40.9778L13.3625 41.648L17.1448 40.9213L18.5114 38.4589C19.1569 35.3295 21.6213 31.8407 24.1503 28.2993L25.8275 25.2797L25.0338 23.904H6.50217L6.50197 23.904Z" fill="#C6B38A"/>
<path d="M19.1861 23.904C20.7837 31.2294 17.0811 38.047 14.8103 41.373L17.1431 40.9215L18.5097 38.4591C19.1552 35.3297 21.6196 31.8409 24.1486 28.2995L25.8257 25.2799L25.032 23.9041L19.1861 23.904Z" fill="#CEBE99"/>
<path d="M6.50197 23.904L4.61084 24.9482C7.87471 30.2708 12.1153 35.4498 12.9 39.2776L15.2535 40.1172C15.2535 40.1172 15.3033 32.9168 6.9299 23.9042L6.50197 23.904Z" fill="#BEA877"/>
<path d="M25.5879 24.1875C25.5879 24.5832 24.5324 24.9626 22.6537 25.2423C20.775 25.5221 18.2269 25.6792 15.5699 25.6792C12.913 25.6792 10.3649 25.5221 8.48619 25.2423C6.60746 24.9626 5.552 24.5832 5.552 24.1875C5.552 23.7919 6.60746 23.4125 8.48619 23.1328C10.3649 22.853 12.913 22.6959 15.5699 22.6959C18.2269 22.6959 20.775 22.853 22.6537 23.1328C24.5324 23.4125 25.5879 23.7919 25.5879 24.1875Z" fill="#D5C7A9"/>
<path d="M15.5704 22.698C12.3966 22.698 9.57214 22.9195 7.73672 23.2624C23.267 22.9146 23.6712 24.3986 22.7483 25.2309C24.5022 24.9622 25.5851 24.5909 25.5851 24.1867C25.5851 23.3628 21.1029 22.698 15.5704 22.698Z" fill="#E1D6C0"/>
<path d="M14.9522 40.156C16.0512 46.7952 15.2407 51.8494 15.6215 58.0588C15.8552 51.9296 15.3408 45.227 16.3505 39.693L14.9522 40.156Z" fill="#C6B38A"/>
<path d="M6.34934 60.444C3.9076 60.8965 2.01839 61.0624 1.89062 61.8833C1.89062 62.6757 8.03567 63.3155 15.6186 63.3155C16.7625 63.3155 17.869 63.3006 18.9315 63.2732C15.4264 62.9745 8.35008 62.1708 6.34934 60.444Z" fill="#CBB381"/>
<path d="M14.7076 1.26999C12.4457 1.28871 10.1843 1.61997 7.92298 2.41295C2.39815 5.72235 0.696564 9.88075 0.696564 14.4916C0.696564 23.6062 13.8788 34.9515 12.982 41.0736C11.7473 49.5037 0.807108 56.0744 0.807108 65.8176C0.807108 70.4286 2.50854 74.5867 8.03352 77.8961C13.2021 79.7087 18.3735 79.0977 23.5421 77.8961C29.065 73.8199 30.8372 69.4399 30.6511 64.8932C30.6511 59.6434 18.3495 46.5141 18.3495 39.9731C18.3495 32.7405 30.5408 23.1536 30.5408 15.4152C31.0274 10.8918 28.9545 6.48835 23.4317 2.41215C20.5243 1.73627 17.6158 1.24511 14.7076 1.26919V1.26999Z" fill="#F7FAFA" fill-opacity="0.2266" stroke="black" stroke-opacity="0.073892" stroke-width="1.1288"/>
<path d="M0.710649 14.986C1.16646 24.0134 13.863 35.062 12.9823 41.076C11.7806 49.2818 1.3876 55.7266 0.834887 65.05C2.22478 61.0132 5.16565 57.2474 7.8541 53.444C10.1385 50.2122 12.2866 47.0428 13.6724 44.4484C14.6505 42.9029 15.2392 41.6218 15.2392 40.3846C15.2392 40.3291 15.2354 40.2732 15.2322 40.2153C15.2355 40.1566 15.2392 40.095 15.2392 40.0389C15.2392 38.8073 14.656 37.5389 13.6862 36.0033C12.3009 33.4045 10.1461 30.2221 7.85403 26.9795C5.07968 23.0545 2.04081 19.1693 0.710571 14.9855L0.710649 14.986Z" fill="url(#paint1_linear_39_2981)"/>
<path d="M30.5887 14.852C29.2816 19.0874 26.2081 23.013 23.4038 26.98C21.1119 30.2224 18.957 33.4048 17.5716 36.0038C16.6018 37.5395 16.0186 38.8078 16.0186 40.0394C16.0186 40.0955 16.0223 40.1571 16.0255 40.2158C16.0224 40.2737 16.0186 40.3297 16.0186 40.3851C16.0186 41.6225 16.6073 42.9035 17.5854 44.4489C18.9712 47.0431 21.1193 50.2125 23.4037 53.4445C26.2608 57.4865 29.4016 61.4853 30.6645 65.8125C30.6703 65.5086 30.6632 65.2008 30.6507 64.8953C30.6507 59.6455 18.3514 46.5173 18.3514 39.9753C18.3514 32.7427 30.5402 23.1547 30.5402 15.4153C30.5605 15.2268 30.5772 15.0389 30.5885 14.8509L30.5887 14.852Z" fill="url(#paint2_linear_39_2981)"/>
<path d="M0.841736 66.842C1.08724 71.045 2.92015 74.8348 8.03352 77.8976C9.58187 78.4406 11.1297 78.7633 12.6785 78.9206C8.1918 76.2842 3.4398 72.6494 0.841736 66.842ZM30.4654 67.9073C27.8394 72.9483 23.548 76.2439 19.443 78.6879C20.8092 78.4867 22.1768 78.2153 23.5427 77.8977C27.8345 74.7301 29.8626 71.3777 30.4654 67.9073Z" fill="#F7F8F8" fill-opacity="0.37931"/>
<path d="M14.0659 1.284C12.0178 1.35564 9.97067 1.69482 7.92317 2.41284C2.71257 5.53404 0.906499 9.40944 0.717499 13.7084C2.70493 9.24744 6.27011 4.987 14.0659 1.284ZM17.1096 1.36161C25.2014 5.24061 28.6891 9.7216 30.603 14.4068C30.696 10.2378 28.5433 6.18541 23.4319 2.41281C21.3252 1.92303 19.2174 1.53156 17.1098 1.36156L17.1096 1.36161Z" fill="#EEF5F7"/>
<path d="M14.7076 1.61199C12.4457 1.62527 10.1843 1.86019 7.92298 2.42251C7.88928 2.43683 7.85977 2.45318 7.82635 2.46754C8.01303 4.46618 11.5058 6.05994 15.7912 6.05994C19.9916 6.05994 23.4316 4.53048 23.7423 2.58774C23.6396 2.53255 23.5368 2.47766 23.4317 2.42263C20.5243 1.94333 17.6158 1.59491 14.7076 1.61199Z" fill="#E8F1F5" fill-opacity="0.80788"/>
<path d="M14.8426 1.69399C12.8661 1.70507 10.8899 1.90157 8.91397 2.37191C8.88452 2.38387 8.85873 2.39756 8.82953 2.40957C8.99265 4.08123 12.0447 5.41417 15.7895 5.41417C19.4601 5.41417 22.4659 4.13495 22.7375 2.50997C22.6478 2.46381 22.5579 2.4179 22.4661 2.37187C19.9255 1.97099 17.3838 1.67971 14.8426 1.69399Z" fill="#FBFDFE" fill-opacity="0.80788"/>
<path d="M22.9862 63.3592L25.1809 62.2445C24.6771 60.6994 24.1732 59.1543 23.6694 57.6094C22.7814 57.5765 21.8934 57.5435 21.0055 57.5106C21.6658 59.4601 22.3259 61.4097 22.9862 63.3592ZM25.6231 62.2665L27.6867 61.3493C27.3693 60.2417 27.0518 59.1341 26.7343 58.0264C25.9245 57.8876 25.1147 57.7489 24.3049 57.6101C24.7443 59.1622 25.1837 60.7144 25.6231 62.2665ZM25.7336 63.1695C25.8348 64.6581 25.936 66.1468 26.0372 67.6353C26.8263 67.0121 27.6154 66.3889 28.4045 65.7657C28.2274 64.5311 28.0503 63.2964 27.8731 62.0619L25.7336 63.1695ZM23.097 64.2137L22.6622 68.7713C23.6077 68.4632 24.5533 68.1552 25.4988 67.8471C25.4045 66.255 25.3102 64.663 25.2159 63.0709C24.5096 63.4519 23.8033 63.8327 23.097 64.2137Z" fill="white" fill-opacity="0.26601"/>
<path d="M27.3558 16.1671L25.0989 15.645L25.8166 11.5319L27.9838 13.0699L27.3558 16.1671Z" fill="white" fill-opacity="0.40887"/>
<path d="M24.5487 15.6456L21.8225 15.0106L22.5403 9.60638L25.2665 11.5324L24.5487 15.6456Z" fill="white" fill-opacity="0.40887"/>
<path d="M21.1167 20.8132L21.8206 15.4939L24.5468 16.1288L23.8222 20.2489L21.1167 20.8132Z" fill="white" fill-opacity="0.40887"/>
<path d="M24.3742 20.2488L25.0989 16.1287L27.3558 16.6508L26.7208 19.762L24.3742 20.2488Z" fill="white" fill-opacity="0.40887"/>
<defs>
<radialGradient id="paint0_radial_39_2981" cx="0" cy="0" r="1" gradientUnits="userSpaceOnUse" gradientTransform="translate(16.1752 78.4657) scale(16.0628 4.10494)">
<stop/>
<stop offset="1" stop-opacity="0"/>
</radialGradient>
<linearGradient id="paint1_linear_39_2981" x1="0.708805" y1="40.0156" x2="15.2365" y2="40.0156" gradientUnits="userSpaceOnUse">
<stop stop-color="#E0ECEC"/>
<stop offset="1" stop-color="#F2F7F7"/>
</linearGradient>
<linearGradient id="paint2_linear_39_2981" x1="21.8157" y1="31.0935" x2="21.7372" y2="44.4337" gradientUnits="userSpaceOnUse">
<stop stop-color="#E0ECEC"/>
<stop offset="1" stop-color="#F2F7F7"/>
</linearGradient>
</defs>
</svg>
